<svg version="1.0" xmlns="http://www.w3.org/2000/svg" xmlns:xlink="http://www.w3.org/1999/xlink"
	 viewBox="0 0 100 100" enable-background="new 0 0 100 100" xml:space="preserve">
	
<svg xmlns="http://www.w3.org/2000/svg" xmlns:xlink="http://www.w3.org/1999/xlink" version="1.1" width="100" height="100" viewBox="0 0 2000 2000" x="0" y="0" shape-rendering="crispEdges"><defs/><rect x="0" y="0" width="2000" height="2000" fill="#ffffff"/><rect x="743" y="173" width="57" height="57" fill="#000000"/><rect x="857" y="173" width="57" height="57" fill="#000000"/><rect x="971" y="173" width="57" height="57" fill="#000000"/><rect x="1028" y="173" width="57" height="57" fill="#000000"/><rect x="1085" y="173" width="57" height="57" fill="#000000"/><rect x="1199" y="173" width="57" height="57" fill="#000000"/><rect x="629" y="230" width="57" height="57" fill="#000000"/><rect x="743" y="230" width="57" height="57" fill="#000000"/><rect x="914" y="230" width="57" height="57" fill="#000000"/><rect x="971" y="230" width="57" height="57" fill="#000000"/><rect x="1142" y="230" width="57" height="57" fill="#000000"/><rect x="1313" y="230" width="57" height="57" fill="#000000"/><rect x="857" y="287" width="57" height="57" fill="#000000"/><rect x="914" y="287" width="57" height="57" fill="#000000"/><rect x="971" y="287" width="57" height="57" fill="#000000"/><rect x="1028" y="287" width="57" height="57" fill="#000000"/><rect x="1085" y="287" width="57" height="57" fill="#000000"/><rect x="1256" y="287" width="57" height="57" fill="#000000"/><rect x="1313" y="287" width="57" height="57" fill="#000000"/><rect x="629" y="344" width="57" height="57" fill="#000000"/><rect x="686" y="344" width="57" height="57" fill="#000000"/><rect x="743" y="344" width="57" height="57" fill="#000000"/><rect x="857" y="344" width="57" height="57" fill="#000000"/><rect x="914" y="344" width="57" height="57" fill="#000000"/><rect x="1028" y="344" width="57" height="57" fill="#000000"/><rect x="1085" y="344" width="57" height="57" fill="#000000"/><rect x="1199" y="344" width="57" height="57" fill="#000000"/><rect x="1313" y="344" width="57" height="57" fill="#000000"/><rect x="686" y="401" width="57" height="57" fill="#000000"/><rect x="1085" y="401" width="57" height="57" fill="#000000"/><rect x="1199" y="401" width="57" height="57" fill="#000000"/><rect x="629" y="458" width="57" height="57" fill="#000000"/><rect x="686" y="458" width="57" height="57" fill="#000000"/><rect x="800" y="458" width="57" height="57" fill="#000000"/><rect x="857" y="458" width="57" height="57" fill="#000000"/><rect x="971" y="458" width="57" height="57" fill="#000000"/><rect x="1142" y="458" width="57" height="57" fill="#000000"/><rect x="629" y="515" width="57" height="57" fill="#000000"/><rect x="743" y="515" width="57" height="57" fill="#000000"/><rect x="857" y="515" width="57" height="57" fill="#000000"/><rect x="971" y="515" width="57" height="57" fill="#000000"/><rect x="1085" y="515" width="57" height="57" fill="#000000"/><rect x="1199" y="515" width="57" height="57" fill="#000000"/><rect x="1313" y="515" width="57" height="57" fill="#000000"/><rect x="686" y="572" width="57" height="57" fill="#000000"/><rect x="743" y="572" width="57" height="57" fill="#000000"/><rect x="800" y="572" width="57" height="57" fill="#000000"/><rect x="971" y="572" width="57" height="57" fill="#000000"/><rect x="1142" y="572" width="57" height="57" fill="#000000"/><rect x="1199" y="572" width="57" height="57" fill="#000000"/><rect x="1256" y="572" width="57" height="57" fill="#000000"/><rect x="1313" y="572" width="57" height="57" fill="#000000"/><rect x="173" y="629" width="57" height="57" fill="#000000"/><rect x="230" y="629" width="57" height="57" fill="#000000"/><rect x="287" y="629" width="57" height="57" fill="#000000"/><rect x="344" y="629" width="57" height="57" fill="#000000"/><rect x="401" y="629" width="57" height="57" fill="#000000"/><rect x="515" y="629" width="57" height="57" fill="#000000"/><rect x="572" y="629" width="57" height="57" fill="#000000"/><rect x="629" y="629" width="57" height="57" fill="#000000"/><rect x="686" y="629" width="57" height="57" fill="#000000"/><rect x="800" y="629" width="57" height="57" fill="#000000"/><rect x="971" y="629" width="57" height="57" fill="#000000"/><rect x="1028" y="629" width="57" height="57" fill="#000000"/><rect x="1370" y="629" width="57" height="57" fill="#000000"/><rect x="1484" y="629" width="57" height="57" fill="#000000"/><rect x="1598" y="629" width="57" height="57" fill="#000000"/><rect x="1712" y="629" width="57" height="57" fill="#000000"/><rect x="230" y="686" width="57" height="57" fill="#000000"/><rect x="344" y="686" width="57" height="57" fill="#000000"/><rect x="572" y="686" width="57" height="57" fill="#000000"/><rect x="743" y="686" width="57" height="57" fill="#000000"/><rect x="857" y="686" width="57" height="57" fill="#000000"/><rect x="1085" y="686" width="57" height="57" fill="#000000"/><rect x="1199" y="686" width="57" height="57" fill="#000000"/><rect x="1256" y="686" width="57" height="57" fill="#000000"/><rect x="1313" y="686" width="57" height="57" fill="#000000"/><rect x="1427" y="686" width="57" height="57" fill="#000000"/><rect x="1541" y="686" width="57" height="57" fill="#000000"/><rect x="1598" y="686" width="57" height="57" fill="#000000"/><rect x="1712" y="686" width="57" height="57" fill="#000000"/><rect x="173" y="743" width="57" height="57" fill="#000000"/><rect x="287" y="743" width="57" height="57" fill="#000000"/><rect x="401" y="743" width="57" height="57" fill="#000000"/><rect x="515" y="743" width="57" height="57" fill="#000000"/><rect x="572" y="743" width="57" height="57" fill="#000000"/><rect x="629" y="743" width="57" height="57" fill="#000000"/><rect x="743" y="743" width="57" height="57" fill="#000000"/><rect x="971" y="743" width="57" height="57" fill="#000000"/><rect x="1142" y="743" width="57" height="57" fill="#000000"/><rect x="1256" y="743" width="57" height="57" fill="#000000"/><rect x="1484" y="743" width="57" height="57" fill="#000000"/><rect x="1598" y="743" width="57" height="57" fill="#000000"/><rect x="1655" y="743" width="57" height="57" fill="#000000"/><rect x="572" y="800" width="57" height="57" fill="#000000"/><rect x="629" y="800" width="57" height="57" fill="#000000"/><rect x="857" y="800" width="57" height="57" fill="#000000"/><rect x="914" y="800" width="57" height="57" fill="#000000"/><rect x="1085" y="800" width="57" height="57" fill="#000000"/><rect x="1199" y="800" width="57" height="57" fill="#000000"/><rect x="1256" y="800" width="57" height="57" fill="#000000"/><rect x="1427" y="800" width="57" height="57" fill="#000000"/><rect x="1484" y="800" width="57" height="57" fill="#000000"/><rect x="1541" y="800" width="57" height="57" fill="#000000"/><rect x="1598" y="800" width="57" height="57" fill="#000000"/><rect x="1769" y="800" width="57" height="57" fill="#000000"/><rect x="230" y="857" width="57" height="57" fill="#000000"/><rect x="344" y="857" width="57" height="57" fill="#000000"/><rect x="515" y="857" width="57" height="57" fill="#000000"/><rect x="629" y="857" width="57" height="57" fill="#000000"/><rect x="686" y="857" width="57" height="57" fill="#000000"/><rect x="743" y="857" width="57" height="57" fill="#000000"/><rect x="857" y="857" width="57" height="57" fill="#000000"/><rect x="914" y="857" width="57" height="57" fill="#000000"/><rect x="1028" y="857" width="57" height="57" fill="#000000"/><rect x="1085" y="857" width="57" height="57" fill="#000000"/><rect x="1484" y="857" width="57" height="57" fill="#000000"/><rect x="1541" y="857" width="57" height="57" fill="#000000"/><rect x="287" y="914" width="57" height="57" fill="#000000"/><rect x="344" y="914" width="57" height="57" fill="#000000"/><rect x="401" y="914" width="57" height="57" fill="#000000"/><rect x="458" y="914" width="57" height="57" fill="#000000"/><rect x="572" y="914" width="57" height="57" fill="#000000"/><rect x="629" y="914" width="57" height="57" fill="#000000"/><rect x="971" y="914" width="57" height="57" fill="#000000"/><rect x="1028" y="914" width="57" height="57" fill="#000000"/><rect x="1313" y="914" width="57" height="57" fill="#000000"/><rect x="1370" y="914" width="57" height="57" fill="#000000"/><rect x="1484" y="914" width="57" height="57" fill="#000000"/><rect x="1541" y="914" width="57" height="57" fill="#000000"/><rect x="1598" y="914" width="57" height="57" fill="#000000"/><rect x="1712" y="914" width="57" height="57" fill="#000000"/><rect x="173" y="971" width="57" height="57" fill="#000000"/><rect x="458" y="971" width="57" height="57" fill="#000000"/><rect x="515" y="971" width="57" height="57" fill="#000000"/><rect x="572" y="971" width="57" height="57" fill="#000000"/><rect x="800" y="971" width="57" height="57" fill="#000000"/><rect x="857" y="971" width="57" height="57" fill="#000000"/><rect x="971" y="971" width="57" height="57" fill="#000000"/><rect x="1142" y="971" width="57" height="57" fill="#000000"/><rect x="1199" y="971" width="57" height="57" fill="#000000"/><rect x="1313" y="971" width="57" height="57" fill="#000000"/><rect x="1598" y="971" width="57" height="57" fill="#000000"/><rect x="1655" y="971" width="57" height="57" fill="#000000"/><rect x="1712" y="971" width="57" height="57" fill="#000000"/><rect x="1769" y="971" width="57" height="57" fill="#000000"/><rect x="686" y="1028" width="57" height="57" fill="#000000"/><rect x="800" y="1028" width="57" height="57" fill="#000000"/><rect x="914" y="1028" width="57" height="57" fill="#000000"/><rect x="1085" y="1028" width="57" height="57" fill="#000000"/><rect x="1142" y="1028" width="57" height="57" fill="#000000"/><rect x="1199" y="1028" width="57" height="57" fill="#000000"/><rect x="1256" y="1028" width="57" height="57" fill="#000000"/><rect x="1313" y="1028" width="57" height="57" fill="#000000"/><rect x="1370" y="1028" width="57" height="57" fill="#000000"/><rect x="1427" y="1028" width="57" height="57" fill="#000000"/><rect x="1484" y="1028" width="57" height="57" fill="#000000"/><rect x="1541" y="1028" width="57" height="57" fill="#000000"/><rect x="1712" y="1028" width="57" height="57" fill="#000000"/><rect x="1769" y="1028" width="57" height="57" fill="#000000"/><rect x="287" y="1085" width="57" height="57" fill="#000000"/><rect x="344" y="1085" width="57" height="57" fill="#000000"/><rect x="401" y="1085" width="57" height="57" fill="#000000"/><rect x="458" y="1085" width="57" height="57" fill="#000000"/><rect x="515" y="1085" width="57" height="57" fill="#000000"/><rect x="629" y="1085" width="57" height="57" fill="#000000"/><rect x="686" y="1085" width="57" height="57" fill="#000000"/><rect x="800" y="1085" width="57" height="57" fill="#000000"/><rect x="1028" y="1085" width="57" height="57" fill="#000000"/><rect x="1085" y="1085" width="57" height="57" fill="#000000"/><rect x="1142" y="1085" width="57" height="57" fill="#000000"/><rect x="1541" y="1085" width="57" height="57" fill="#000000"/><rect x="173" y="1142" width="57" height="57" fill="#000000"/><rect x="458" y="1142" width="57" height="57" fill="#000000"/><rect x="857" y="1142" width="57" height="57" fill="#000000"/><rect x="1085" y="1142" width="57" height="57" fill="#000000"/><rect x="1199" y="1142" width="57" height="57" fill="#000000"/><rect x="1370" y="1142" width="57" height="57" fill="#000000"/><rect x="1427" y="1142" width="57" height="57" fill="#000000"/><rect x="1484" y="1142" width="57" height="57" fill="#000000"/><rect x="1541" y="1142" width="57" height="57" fill="#000000"/><rect x="1598" y="1142" width="57" height="57" fill="#000000"/><rect x="1712" y="1142" width="57" height="57" fill="#000000"/><rect x="1769" y="1142" width="57" height="57" fill="#000000"/><rect x="173" y="1199" width="57" height="57" fill="#000000"/><rect x="287" y="1199" width="57" height="57" fill="#000000"/><rect x="458" y="1199" width="57" height="57" fill="#000000"/><rect x="515" y="1199" width="57" height="57" fill="#000000"/><rect x="572" y="1199" width="57" height="57" fill="#000000"/><rect x="971" y="1199" width="57" height="57" fill="#000000"/><rect x="1142" y="1199" width="57" height="57" fill="#000000"/><rect x="1256" y="1199" width="57" height="57" fill="#000000"/><rect x="1484" y="1199" width="57" height="57" fill="#000000"/><rect x="1598" y="1199" width="57" height="57" fill="#000000"/><rect x="1655" y="1199" width="57" height="57" fill="#000000"/><rect x="1712" y="1199" width="57" height="57" fill="#000000"/><rect x="1769" y="1199" width="57" height="57" fill="#000000"/><rect x="173" y="1256" width="57" height="57" fill="#000000"/><rect x="287" y="1256" width="57" height="57" fill="#000000"/><rect x="344" y="1256" width="57" height="57" fill="#000000"/><rect x="401" y="1256" width="57" height="57" fill="#000000"/><rect x="572" y="1256" width="57" height="57" fill="#000000"/><rect x="857" y="1256" width="57" height="57" fill="#000000"/><rect x="971" y="1256" width="57" height="57" fill="#000000"/><rect x="1085" y="1256" width="57" height="57" fill="#000000"/><rect x="1199" y="1256" width="57" height="57" fill="#000000"/><rect x="1256" y="1256" width="57" height="57" fill="#000000"/><rect x="1313" y="1256" width="57" height="57" fill="#000000"/><rect x="1370" y="1256" width="57" height="57" fill="#000000"/><rect x="1427" y="1256" width="57" height="57" fill="#000000"/><rect x="1484" y="1256" width="57" height="57" fill="#000000"/><rect x="1541" y="1256" width="57" height="57" fill="#000000"/><rect x="1712" y="1256" width="57" height="57" fill="#000000"/><rect x="1769" y="1256" width="57" height="57" fill="#000000"/><rect x="173" y="1313" width="57" height="57" fill="#000000"/><rect x="287" y="1313" width="57" height="57" fill="#000000"/><rect x="344" y="1313" width="57" height="57" fill="#000000"/><rect x="458" y="1313" width="57" height="57" fill="#000000"/><rect x="515" y="1313" width="57" height="57" fill="#000000"/><rect x="686" y="1313" width="57" height="57" fill="#000000"/><rect x="743" y="1313" width="57" height="57" fill="#000000"/><rect x="857" y="1313" width="57" height="57" fill="#000000"/><rect x="1028" y="1313" width="57" height="57" fill="#000000"/><rect x="1142" y="1313" width="57" height="57" fill="#000000"/><rect x="1199" y="1313" width="57" height="57" fill="#000000"/><rect x="1313" y="1313" width="57" height="57" fill="#000000"/><rect x="1370" y="1313" width="57" height="57" fill="#000000"/><rect x="1427" y="1313" width="57" height="57" fill="#000000"/><rect x="1484" y="1313" width="57" height="57" fill="#000000"/><rect x="1541" y="1313" width="57" height="57" fill="#000000"/><rect x="1598" y="1313" width="57" height="57" fill="#000000"/><rect x="1655" y="1313" width="57" height="57" fill="#000000"/><rect x="1712" y="1313" width="57" height="57" fill="#000000"/><rect x="629" y="1370" width="57" height="57" fill="#000000"/><rect x="686" y="1370" width="57" height="57" fill="#000000"/><rect x="743" y="1370" width="57" height="57" fill="#000000"/><rect x="971" y="1370" width="57" height="57" fill="#000000"/><rect x="1256" y="1370" width="57" height="57" fill="#000000"/><rect x="1313" y="1370" width="57" height="57" fill="#000000"/><rect x="1541" y="1370" width="57" height="57" fill="#000000"/><rect x="1712" y="1370" width="57" height="57" fill="#000000"/><rect x="629" y="1427" width="57" height="57" fill="#000000"/><rect x="743" y="1427" width="57" height="57" fill="#000000"/><rect x="800" y="1427" width="57" height="57" fill="#000000"/><rect x="857" y="1427" width="57" height="57" fill="#000000"/><rect x="914" y="1427" width="57" height="57" fill="#000000"/><rect x="971" y="1427" width="57" height="57" fill="#000000"/><rect x="1142" y="1427" width="57" height="57" fill="#000000"/><rect x="1256" y="1427" width="57" height="57" fill="#000000"/><rect x="1313" y="1427" width="57" height="57" fill="#000000"/><rect x="1427" y="1427" width="57" height="57" fill="#000000"/><rect x="1541" y="1427" width="57" height="57" fill="#000000"/><rect x="1598" y="1427" width="57" height="57" fill="#000000"/><rect x="1655" y="1427" width="57" height="57" fill="#000000"/><rect x="686" y="1484" width="57" height="57" fill="#000000"/><rect x="743" y="1484" width="57" height="57" fill="#000000"/><rect x="800" y="1484" width="57" height="57" fill="#000000"/><rect x="1085" y="1484" width="57" height="57" fill="#000000"/><rect x="1142" y="1484" width="57" height="57" fill="#000000"/><rect x="1199" y="1484" width="57" height="57" fill="#000000"/><rect x="1256" y="1484" width="57" height="57" fill="#000000"/><rect x="1313" y="1484" width="57" height="57" fill="#000000"/><rect x="1541" y="1484" width="57" height="57" fill="#000000"/><rect x="1655" y="1484" width="57" height="57" fill="#000000"/><rect x="1712" y="1484" width="57" height="57" fill="#000000"/><rect x="1769" y="1484" width="57" height="57" fill="#000000"/><rect x="629" y="1541" width="57" height="57" fill="#000000"/><rect x="686" y="1541" width="57" height="57" fill="#000000"/><rect x="743" y="1541" width="57" height="57" fill="#000000"/><rect x="800" y="1541" width="57" height="57" fill="#000000"/><rect x="857" y="1541" width="57" height="57" fill="#000000"/><rect x="971" y="1541" width="57" height="57" fill="#000000"/><rect x="1028" y="1541" width="57" height="57" fill="#000000"/><rect x="1085" y="1541" width="57" height="57" fill="#000000"/><rect x="1142" y="1541" width="57" height="57" fill="#000000"/><rect x="1313" y="1541" width="57" height="57" fill="#000000"/><rect x="1370" y="1541" width="57" height="57" fill="#000000"/><rect x="1427" y="1541" width="57" height="57" fill="#000000"/><rect x="1484" y="1541" width="57" height="57" fill="#000000"/><rect x="1541" y="1541" width="57" height="57" fill="#000000"/><rect x="1655" y="1541" width="57" height="57" fill="#000000"/><rect x="1712" y="1541" width="57" height="57" fill="#000000"/><rect x="1769" y="1541" width="57" height="57" fill="#000000"/><rect x="629" y="1598" width="57" height="57" fill="#000000"/><rect x="857" y="1598" width="57" height="57" fill="#000000"/><rect x="1085" y="1598" width="57" height="57" fill="#000000"/><rect x="1313" y="1598" width="57" height="57" fill="#000000"/><rect x="1427" y="1598" width="57" height="57" fill="#000000"/><rect x="1484" y="1598" width="57" height="57" fill="#000000"/><rect x="629" y="1655" width="57" height="57" fill="#000000"/><rect x="686" y="1655" width="57" height="57" fill="#000000"/><rect x="743" y="1655" width="57" height="57" fill="#000000"/><rect x="857" y="1655" width="57" height="57" fill="#000000"/><rect x="914" y="1655" width="57" height="57" fill="#000000"/><rect x="971" y="1655" width="57" height="57" fill="#000000"/><rect x="1142" y="1655" width="57" height="57" fill="#000000"/><rect x="1256" y="1655" width="57" height="57" fill="#000000"/><rect x="1370" y="1655" width="57" height="57" fill="#000000"/><rect x="1484" y="1655" width="57" height="57" fill="#000000"/><rect x="1655" y="1655" width="57" height="57" fill="#000000"/><rect x="1712" y="1655" width="57" height="57" fill="#000000"/><rect x="629" y="1712" width="57" height="57" fill="#000000"/><rect x="743" y="1712" width="57" height="57" fill="#000000"/><rect x="857" y="1712" width="57" height="57" fill="#000000"/><rect x="971" y="1712" width="57" height="57" fill="#000000"/><rect x="1142" y="1712" width="57" height="57" fill="#000000"/><rect x="1199" y="1712" width="57" height="57" fill="#000000"/><rect x="1256" y="1712" width="57" height="57" fill="#000000"/><rect x="1598" y="1712" width="57" height="57" fill="#000000"/><rect x="1655" y="1712" width="57" height="57" fill="#000000"/><rect x="1769" y="1712" width="57" height="57" fill="#000000"/><rect x="629" y="1769" width="57" height="57" fill="#000000"/><rect x="686" y="1769" width="57" height="57" fill="#000000"/><rect x="857" y="1769" width="57" height="57" fill="#000000"/><rect x="914" y="1769" width="57" height="57" fill="#000000"/><rect x="971" y="1769" width="57" height="57" fill="#000000"/><rect x="1028" y="1769" width="57" height="57" fill="#000000"/><rect x="1085" y="1769" width="57" height="57" fill="#000000"/><rect x="1313" y="1769" width="57" height="57" fill="#000000"/><rect x="1370" y="1769" width="57" height="57" fill="#000000"/><rect x="1427" y="1769" width="57" height="57" fill="#000000"/><rect x="1541" y="1769" width="57" height="57" fill="#000000"/><rect x="1598" y="1769" width="57" height="57" fill="#000000"/><rect x="1655" y="1769" width="57" height="57" fill="#000000"/><svg version="1.1" id="Ebene_1" x="173" y="173" viewBox="0 0 700 700" style="enable-background:new 0 0 700 700;" xml:space="preserve" width="399" height="399" shape-rendering="auto">

<path fill="#000000" d="M21.2-0.1C9.5-0.1-0.1,9.5-0.1,21.2v78.8v100v100v100v100v100v78.8c0,11.7,9.5,21.3,21.3,21.3h657.6  c11.7,0,21.3-9.5,21.3-21.3V600V500V400V300V200v-100V21.2c0-11.7-9.5-21.3-21.3-21.3H21.2z M600,200v100v100v100v87.8  c0,6.8-5.5,12.2-12.2,12.2H112.2c-6.8,0-12.2-5.5-12.2-12.2V500V400V300V200v-87.8c0-6.8,5.5-12.2,12.2-12.2h475.6  c6.8,0,12.2,5.5,12.2,12.2V200z"/>
</svg>
<svg version="1.1" id="Ebene_1" x="173" y="173" viewBox="0 0 700 700" style="enable-background:new 0 0 700 700;" xml:space="preserve" width="399" height="399" shape-rendering="auto">

<path fill="#000000" d="M500,400V300v-78.8c0-11.7-9.5-21.3-21.3-21.3H221.2c-11.7,0-21.3,9.5-21.3,21.3V300v100v78.8    c0,11.7,9.5,21.3,21.3,21.3h257.5c11.7,0,21.3-9.5,21.3-21.3V400z"/>
</svg>
<svg version="1.1" id="Ebene_1" x="1427" y="173" viewBox="0 0 700 700" style="enable-background:new 0 0 700 700;" xml:space="preserve" width="399" height="399" shape-rendering="auto">

<path fill="#000000" d="M21.2-0.1C9.5-0.1-0.1,9.5-0.1,21.2v78.8v100v100v100v100v100v78.8c0,11.7,9.5,21.3,21.3,21.3h657.6  c11.7,0,21.3-9.5,21.3-21.3V600V500V400V300V200v-100V21.2c0-11.7-9.5-21.3-21.3-21.3H21.2z M600,200v100v100v100v87.8  c0,6.8-5.5,12.2-12.2,12.2H112.2c-6.8,0-12.2-5.5-12.2-12.2V500V400V300V200v-87.8c0-6.8,5.5-12.2,12.2-12.2h475.6  c6.8,0,12.2,5.5,12.2,12.2V200z"/>
</svg>
<svg version="1.1" id="Ebene_1" x="1427" y="173" viewBox="0 0 700 700" style="enable-background:new 0 0 700 700;" xml:space="preserve" width="399" height="399" shape-rendering="auto">

<path fill="#000000" d="M500,400V300v-78.8c0-11.7-9.5-21.3-21.3-21.3H221.2c-11.7,0-21.3,9.5-21.3,21.3V300v100v78.8    c0,11.7,9.5,21.3,21.3,21.3h257.5c11.7,0,21.3-9.5,21.3-21.3V400z"/>
</svg>
<svg version="1.1" id="Ebene_1" x="173" y="1427" viewBox="0 0 700 700" style="enable-background:new 0 0 700 700;" xml:space="preserve" width="399" height="399" shape-rendering="auto">

<path fill="#000000" d="M21.2-0.1C9.5-0.1-0.1,9.5-0.1,21.2v78.8v100v100v100v100v100v78.8c0,11.7,9.5,21.3,21.3,21.3h657.6  c11.7,0,21.3-9.5,21.3-21.3V600V500V400V300V200v-100V21.2c0-11.7-9.5-21.3-21.3-21.3H21.2z M600,200v100v100v100v87.8  c0,6.8-5.5,12.2-12.2,12.2H112.2c-6.8,0-12.2-5.5-12.2-12.2V500V400V300V200v-87.8c0-6.8,5.5-12.2,12.2-12.2h475.6  c6.8,0,12.2,5.5,12.2,12.2V200z"/>
</svg>
<svg version="1.1" id="Ebene_1" x="173" y="1427" viewBox="0 0 700 700" style="enable-background:new 0 0 700 700;" xml:space="preserve" width="399" height="399" shape-rendering="auto">

<path fill="#000000" d="M500,400V300v-78.8c0-11.7-9.5-21.3-21.3-21.3H221.2c-11.7,0-21.3,9.5-21.3,21.3V300v100v78.8    c0,11.7,9.5,21.3,21.3,21.3h257.5c11.7,0,21.3-9.5,21.3-21.3V400z"/>
</svg>
</svg>

</svg>
