<svg id="_x31__x2C_5" enable-background="new 0 0 24 24" height="512" viewBox="0 0 24 24" width="512" xmlns="http://www.w3.org/2000/svg"><path d="m3.25 22c-.179 0-.358-.063-.502-.192l-2.5-2.25c-.152-.138-.242-.332-.248-.538-.005-.206.074-.404.22-.55l1.97-1.97-1.97-1.97c-.293-.293-.293-.768 0-1.061l1.97-1.97-1.97-1.969c-.293-.293-.293-.768 0-1.061l1.97-1.97-1.97-1.969c-.146-.145-.225-.344-.22-.55.006-.206.096-.4.248-.538l2.5-2.25c.308-.278.781-.253 1.06.056.277.308.252.782-.056 1.06l-1.913 1.721 1.941 1.941c.293.293.293.768 0 1.061l-1.969 1.969 1.97 1.97c.293.293.293.768 0 1.061l-1.97 1.969 1.97 1.97c.293.293.293.768 0 1.061l-1.941 1.941 1.913 1.721c.308.277.333.751.056 1.06-.15.164-.354.247-.559.247z"/><path d="m20.75 22c-.205 0-.409-.083-.558-.248-.277-.308-.252-.782.056-1.06l1.913-1.721-1.941-1.941c-.293-.293-.293-.768 0-1.061l1.97-1.97-1.97-1.97c-.293-.293-.293-.768 0-1.061l1.969-1.968-1.97-1.97c-.293-.293-.293-.768 0-1.061l1.941-1.941-1.913-1.721c-.308-.277-.333-.751-.056-1.06.278-.308.752-.332 1.06-.056l2.5 2.25c.153.139.243.333.249.539.005.206-.074.404-.22.55l-1.97 1.97 1.97 1.97c.293.293.293.768 0 1.061l-1.97 1.97 1.97 1.97c.293.293.293.768 0 1.061l-1.97 1.97 1.97 1.97c.146.146.225.344.22.55-.006.206-.096.4-.248.538l-2.5 2.25c-.144.127-.323.19-.502.19z"/><path d="m15.25 20h-6.5c-1.24 0-2.25-1.009-2.25-2.25v-13.5c0-1.241 1.01-2.25 2.25-2.25h6.5c1.24 0 2.25 1.009 2.25 2.25v13.5c0 1.241-1.01 2.25-2.25 2.25zm-6.5-16.5c-.413 0-.75.336-.75.75v13.5c0 .414.337.75.75.75h6.5c.413 0 .75-.336.75-.75v-13.5c0-.414-.337-.75-.75-.75z"/><path d="m16.75 17h-9.5c-.414 0-.75-.336-.75-.75s.336-.75.75-.75h9.5c.414 0 .75.336.75.75s-.336.75-.75.75z"/></svg>