<svg width="50" height="50" viewBox="0 0 50 50" fill="none" xmlns="http://www.w3.org/2000/svg">
<rect x="4" y="4" width="42" height="42" rx="9" stroke="black" stroke-width="2"/>
<path d="M32.0296 28.936H12.6682C11.8971 28.936 11.272 29.4871 11.272 30.1668C11.272 30.8465 11.8971 31.3976 12.6682 31.3976H32.0296C32.8007 31.3976 33.4258 30.8465 33.4258 30.1668C33.4258 29.4871 32.8007 28.936 32.0296 28.936Z" fill="black"/>
<path d="M22.2419 35.0801H12.6098C11.8709 35.0801 11.272 35.6311 11.272 36.3108C11.272 36.9906 11.8709 37.5416 12.6098 37.5416H22.2419C22.9807 37.5416 23.5797 36.9906 23.5797 36.3108C23.5797 35.6311 22.9807 35.0801 22.2419 35.0801Z" fill="black"/>
</svg>
